<svg width="29" height="29" viewBox="0 0 29 29" fill="none" xmlns="http://www.w3.org/2000/svg">
<path d="M24.7503 4.24904C19.0849 -1.41635 9.90579 -1.41635 4.24644 4.24904C-1.20197 9.69744 -1.40689 18.4125 3.63771 24.108L3.78839 24.2285C3.23993 25.4098 2.29972 26.8684 0.805021 27.6037C0.310807 27.8447 0.42532 28.58 0.96775 28.6644C2.60107 28.9175 4.94557 28.6343 7.13337 26.9829L7.16351 27.007C12.7204 30.2736 19.989 29.5263 24.7624 24.7529C30.4157 19.0935 30.4157 9.90839 24.7503 4.24904ZM19.2778 20.7027C18.9583 21.0282 18.6208 21.3296 18.3195 21.6671C17.8795 22.1613 17.325 22.318 16.6982 22.2818C15.7821 22.2336 14.9323 21.9262 14.1187 21.5284C12.3045 20.6485 10.7556 19.425 9.4598 17.8821C8.5015 16.743 7.71197 15.5014 7.18762 14.0972C6.93448 13.4161 6.75367 12.723 6.80791 11.9877C6.84408 11.5357 7.01283 11.15 7.34432 10.8305C7.70594 10.487 8.04345 10.1314 8.39904 9.78182C8.86312 9.32377 9.44172 9.3298 9.90579 9.78182C10.1951 10.0651 10.4723 10.3484 10.7556 10.6316C11.0328 10.9089 11.3101 11.1801 11.5813 11.4573C12.0635 11.9455 12.0635 12.5121 11.5813 13.0002C11.2378 13.3498 10.8942 13.6994 10.5386 14.0369C10.4482 14.1273 10.4362 14.1996 10.4844 14.3141C10.7134 14.8686 11.0509 15.3628 11.4246 15.8209C12.178 16.749 13.0338 17.5747 14.0584 18.2136C14.2754 18.3522 14.5165 18.4486 14.7455 18.5752C14.86 18.6415 14.9444 18.6174 15.0348 18.521C15.3783 18.1654 15.7339 17.8158 16.0835 17.4662C16.5475 17.0082 17.1261 17.0082 17.5842 17.4662C18.1507 18.0268 18.7112 18.5873 19.2718 19.1538C19.7539 19.648 19.7539 20.2266 19.2778 20.7027ZM13.9318 11.3368L14.1126 10.047C15.3602 10.2218 16.4933 10.7883 17.3853 11.6803C18.2351 12.5301 18.7896 13.5969 18.9885 14.7722L17.7047 14.9952C17.548 14.0851 17.1201 13.2594 16.4632 12.6025C15.7701 11.9094 14.8962 11.4694 13.9318 11.3368ZM21.0859 14.7722C20.7966 13.0846 20.001 11.5538 18.7896 10.3363C17.5119 9.05858 15.8906 8.25096 14.1006 7.99783L14.2814 6.70805C16.3487 6.99735 18.2291 7.93153 19.7057 9.41418C21.11 10.8185 22.0321 12.5964 22.3696 14.5492L21.0859 14.7722Z" fill="white"/>
</svg>
