<svg width="1920" height="763" viewBox="0 0 1920 763" fill="none" xmlns="http://www.w3.org/2000/svg">
<g clip-path="url(#clip0)">
<g opacity="0.72" filter="url(#filter0_f)">
<path opacity="0.72" d="M628.65 543.789L613.318 529.36L598.89 544.691L614.221 559.12L628.65 543.789Z" stroke="#FFEDC5" stroke-width="21.0531"/>
</g>
<path d="M635.047 543.595L613.123 522.962L592.49 544.886L614.414 565.519L635.047 543.595Z" stroke="#FFEDC5" stroke-width="12"/>
<g opacity="0.65" filter="url(#filter1_f)">
<path opacity="0.65" d="M735.848 480.33C745.163 480.33 752.715 472.779 752.715 463.463C752.715 454.148 745.163 446.596 735.848 446.596C726.532 446.596 718.98 454.148 718.98 463.463C718.98 472.779 726.532 480.33 735.848 480.33Z" stroke="#FFEDC5" stroke-width="27"/>
</g>
<path d="M736.202 488.5C750.009 488.5 761.202 477.307 761.202 463.5C761.202 449.693 750.009 438.5 736.202 438.5C722.395 438.5 711.202 449.693 711.202 463.5C711.202 477.307 722.395 488.5 736.202 488.5Z" stroke="#FFEDC5" stroke-width="11"/>
<g opacity="0.65" filter="url(#filter2_f)">
<path opacity="0.65" d="M179.702 284.5C187.158 284.5 193.202 278.456 193.202 271C193.202 263.544 187.158 257.5 179.702 257.5C172.246 257.5 166.202 263.544 166.202 271C166.202 278.456 172.246 284.5 179.702 284.5Z" stroke="#FFEDC5" stroke-width="5"/>
</g>
<path d="M179.702 283C186.33 283 191.702 277.627 191.702 271C191.702 264.373 186.33 259 179.702 259C173.075 259 167.702 264.373 167.702 271C167.702 277.627 173.075 283 179.702 283Z" stroke="#FFEDC5" stroke-width="8"/>
<g opacity="0.81" filter="url(#filter3_f)">
<path opacity="0.81" d="M1652.93 372.361C1662.99 372.361 1671.15 364.204 1671.15 354.141C1671.15 344.078 1662.99 335.921 1652.93 335.921C1642.87 335.921 1634.71 344.078 1634.71 354.141C1634.71 364.204 1642.87 372.361 1652.93 372.361Z" fill="#FFA935"/>
<path opacity="0.81" d="M1652.93 367.641C1660.39 367.641 1666.43 361.597 1666.43 354.141C1666.43 346.685 1660.39 340.641 1652.93 340.641C1645.47 340.641 1639.43 346.685 1639.43 354.141C1639.43 361.597 1645.47 367.641 1652.93 367.641Z" stroke="#FFEDC5" stroke-width="9.44068"/>
</g>
<path d="M1652.93 368.861C1661.06 368.861 1667.65 362.271 1667.65 354.141C1667.65 346.011 1661.06 339.421 1652.93 339.421C1644.8 339.421 1638.21 346.011 1638.21 354.141C1638.21 362.271 1644.8 368.861 1652.93 368.861Z" stroke="#FFEDC5" stroke-width="7"/>
<g filter="url(#filter4_f)">
<path d="M229.131 151.741L239.999 155.49L221.01 210.535L210.141 206.785L229.131 151.741Z" fill="#FFEDC5"/>
<path d="M195.321 176.961L199.07 166.092L254.115 185.077L250.366 195.946L195.321 176.961Z" fill="#FFEDC5"/>
</g>
<path d="M229.131 151.741L239.999 155.49L221.009 210.535L210.141 206.785L229.131 151.741Z" fill="#FFEDC5"/>
<path d="M195.322 176.961L199.071 166.092L254.116 185.077L250.367 195.946L195.322 176.961Z" fill="#FFEDC5"/>
<g filter="url(#filter5_f)">
<path d="M1735.29 397.226L1745.17 395.011L1756.39 445.083L1746.5 447.298L1735.29 397.226Z" fill="#FFEDC5"/>
<path d="M1721.59 431.781L1719.38 421.894L1769.45 410.675L1771.66 420.561L1721.59 431.781Z" fill="#FFEDC5"/>
</g>
<path d="M1735.29 397.226L1745.17 395.011L1756.39 445.083L1746.5 447.298L1735.29 397.226Z" fill="#FFEDC5"/>
<path d="M1721.59 431.781L1719.38 421.894L1769.45 410.675L1771.66 420.561L1721.59 431.781Z" fill="#FFEDC5"/>
<g opacity="0.72" filter="url(#filter6_f)">
<path opacity="0.72" d="M1847.09 103.843L1880.74 76.3289L1908.25 109.975L1874.61 137.488L1847.09 103.843Z" stroke="#FFC035" stroke-width="36"/>
</g>
<path d="M1835.13 102.643L1881.94 64.368L1920.21 111.174L1873.41 149.449L1835.13 102.643Z" stroke="#FFC035" stroke-width="19"/>
<g opacity="0.65" filter="url(#filter7_f)">
<path opacity="0.65" d="M1366.93 564.836C1355.52 564.836 1346.26 555.583 1346.26 544.168C1346.26 532.754 1355.52 523.5 1366.93 523.5C1378.34 523.5 1387.6 532.754 1387.6 544.168C1387.6 555.583 1378.34 564.836 1366.93 564.836Z" stroke="#FFC035" stroke-width="27"/>
</g>
<path d="M1366.26 555.5C1355.21 555.5 1346.26 546.546 1346.26 535.5C1346.26 524.454 1355.21 515.5 1366.26 515.5C1377.31 515.5 1386.26 524.454 1386.26 535.5C1386.26 546.546 1377.31 555.5 1366.26 555.5Z" stroke="#FFC035" stroke-width="11"/>
<g opacity="0.81" filter="url(#filter8_f)">
<path opacity="0.81" d="M320.273 662C299.01 662 281.773 644.763 281.773 623.5C281.773 602.237 299.01 585 320.273 585C341.536 585 358.773 602.237 358.773 623.5C358.773 644.763 341.536 662 320.273 662Z" fill="#FFA935"/>
<path opacity="0.81" d="M320.273 648.5C306.466 648.5 295.273 637.307 295.273 623.5C295.273 609.693 306.466 598.5 320.273 598.5C334.081 598.5 345.273 609.693 345.273 623.5C345.273 637.307 334.081 648.5 320.273 648.5Z" stroke="#FFC035" stroke-width="27"/>
</g>
<path d="M320.273 654.5C303.153 654.5 289.273 640.621 289.273 623.5C289.273 606.379 303.153 592.5 320.273 592.5C337.394 592.5 351.273 606.379 351.273 623.5C351.273 640.621 337.394 654.5 320.273 654.5Z" stroke="#FFC035" stroke-width="15"/>
<g filter="url(#filter9_f)">
<path d="M1650.31 620.004L1633.46 625.818L1662.91 711.175L1679.76 705.361L1650.31 620.004Z" fill="#FFC035"/>
<path d="M1702.74 659.112L1696.93 642.258L1611.57 671.698L1617.38 688.552L1702.74 659.112Z" fill="#FFC035"/>
</g>
<path d="M1650.31 620.004L1633.46 625.818L1662.91 711.175L1679.76 705.361L1650.31 620.004Z" fill="#FFC035"/>
<path d="M1702.74 659.112L1696.93 642.258L1611.57 671.698L1617.38 688.552L1702.74 659.112Z" fill="#FFC035"/>
<g filter="url(#filter10_f)">
<path d="M-2.50482 382.596L-20.3359 394.883L41.8959 485.191L59.727 472.903L-2.50482 382.596Z" fill="#FFC035"/>
<path d="M71.5707 411.304L59.2842 393.472L-31.0264 455.696L-18.7399 473.529L71.5707 411.304Z" fill="#FFC035"/>
</g>
<path d="M-2.50481 382.596L-20.3359 394.883L41.8959 485.191L59.727 472.903L-2.50481 382.596Z" fill="#FFC035"/>
<path d="M71.5707 411.304L59.2842 393.472L-31.0264 455.696L-18.7399 473.529L71.5707 411.304Z" fill="#FFC035"/>
</g>
<defs>
<filter id="filter0_f" x="533.01" y="463.48" width="161.52" height="161.52" filterUnits="userSpaceOnUse" color-interpolation-filters="sRGB">
<feFlood flood-opacity="0" result="BackgroundImageFix"/>
<feBlend mode="normal" in="SourceGraphic" in2="BackgroundImageFix" result="shape"/>
<feGaussianBlur stdDeviation="25.5" result="effect1_foregroundBlur"/>
</filter>
<filter id="filter1_f" x="669.48" y="397.096" width="132.734" height="132.734" filterUnits="userSpaceOnUse" color-interpolation-filters="sRGB">
<feFlood flood-opacity="0" result="BackgroundImageFix"/>
<feBlend mode="normal" in="SourceGraphic" in2="BackgroundImageFix" result="shape"/>
<feGaussianBlur stdDeviation="18" result="effect1_foregroundBlur"/>
</filter>
<filter id="filter2_f" x="127.702" y="219" width="104" height="104" filterUnits="userSpaceOnUse" color-interpolation-filters="sRGB">
<feFlood flood-opacity="0" result="BackgroundImageFix"/>
<feBlend mode="normal" in="SourceGraphic" in2="BackgroundImageFix" result="shape"/>
<feGaussianBlur stdDeviation="18" result="effect1_foregroundBlur"/>
</filter>
<filter id="filter3_f" x="1598.71" y="299.921" width="108.441" height="108.441" filterUnits="userSpaceOnUse" color-interpolation-filters="sRGB">
<feFlood flood-opacity="0" result="BackgroundImageFix"/>
<feBlend mode="normal" in="SourceGraphic" in2="BackgroundImageFix" result="shape"/>
<feGaussianBlur stdDeviation="18" result="effect1_foregroundBlur"/>
</filter>
<filter id="filter4_f" x="155.321" y="111.741" width="138.794" height="138.794" filterUnits="userSpaceOnUse" color-interpolation-filters="sRGB">
<feFlood flood-opacity="0" result="BackgroundImageFix"/>
<feBlend mode="normal" in="SourceGraphic" in2="BackgroundImageFix" result="shape"/>
<feGaussianBlur stdDeviation="20" result="effect1_foregroundBlur"/>
</filter>
<filter id="filter5_f" x="1679.38" y="355.011" width="132.28" height="132.287" filterUnits="userSpaceOnUse" color-interpolation-filters="sRGB">
<feFlood flood-opacity="0" result="BackgroundImageFix"/>
<feBlend mode="normal" in="SourceGraphic" in2="BackgroundImageFix" result="shape"/>
<feGaussianBlur stdDeviation="20" result="effect1_foregroundBlur"/>
</filter>
<filter id="filter6_f" x="1770.76" y="0" width="213.817" height="213.817" filterUnits="userSpaceOnUse" color-interpolation-filters="sRGB">
<feFlood flood-opacity="0" result="BackgroundImageFix"/>
<feBlend mode="normal" in="SourceGraphic" in2="BackgroundImageFix" result="shape"/>
<feGaussianBlur stdDeviation="25.5" result="effect1_foregroundBlur"/>
</filter>
<filter id="filter7_f" x="1296.76" y="474" width="140.336" height="140.336" filterUnits="userSpaceOnUse" color-interpolation-filters="sRGB">
<feFlood flood-opacity="0" result="BackgroundImageFix"/>
<feBlend mode="normal" in="SourceGraphic" in2="BackgroundImageFix" result="shape"/>
<feGaussianBlur stdDeviation="18" result="effect1_foregroundBlur"/>
</filter>
<filter id="filter8_f" x="245.773" y="549" width="149" height="149" filterUnits="userSpaceOnUse" color-interpolation-filters="sRGB">
<feFlood flood-opacity="0" result="BackgroundImageFix"/>
<feBlend mode="normal" in="SourceGraphic" in2="BackgroundImageFix" result="shape"/>
<feGaussianBlur stdDeviation="18" result="effect1_foregroundBlur"/>
</filter>
<filter id="filter9_f" x="1571.57" y="580.004" width="171.17" height="171.171" filterUnits="userSpaceOnUse" color-interpolation-filters="sRGB">
<feFlood flood-opacity="0" result="BackgroundImageFix"/>
<feBlend mode="normal" in="SourceGraphic" in2="BackgroundImageFix" result="shape"/>
<feGaussianBlur stdDeviation="20" result="effect1_foregroundBlur"/>
</filter>
<filter id="filter10_f" x="-71.0264" y="342.596" width="182.597" height="182.595" filterUnits="userSpaceOnUse" color-interpolation-filters="sRGB">
<feFlood flood-opacity="0" result="BackgroundImageFix"/>
<feBlend mode="normal" in="SourceGraphic" in2="BackgroundImageFix" result="shape"/>
<feGaussianBlur stdDeviation="20" result="effect1_foregroundBlur"/>
</filter>
<clipPath id="clip0">
<rect width="1920" height="763" fill="white"/>
</clipPath>
</defs>
</svg>
