<svg width="1920" height="763" viewBox="0 0 1920 763" fill="none" xmlns="http://www.w3.org/2000/svg">
<g clip-path="url(#clip0)">
<g opacity="0.72" filter="url(#filter0_f)">
<path opacity="0.72" d="M1847.09 103.843L1880.74 76.3289L1908.25 109.975L1874.61 137.488L1847.09 103.843Z" stroke="#FFC035" stroke-width="36"/>
</g>
<path d="M1835.13 102.643L1881.94 64.368L1920.21 111.174L1873.41 149.449L1835.13 102.643Z" stroke="#FFC035" stroke-width="19"/>
<g filter="url(#filter1_f)">
<path d="M1650.31 620.004L1633.46 625.818L1662.91 711.175L1679.76 705.361L1650.31 620.004Z" fill="#FFC035"/>
<path d="M1702.74 659.112L1696.93 642.258L1611.57 671.698L1617.38 688.552L1702.74 659.112Z" fill="#FFC035"/>
</g>
<path d="M1650.31 620.004L1633.46 625.818L1662.91 711.175L1679.76 705.361L1650.31 620.004Z" fill="#FFC035"/>
<path d="M1702.74 659.112L1696.93 642.258L1611.57 671.698L1617.38 688.552L1702.74 659.112Z" fill="#FFC035"/>
<g filter="url(#filter2_f)">
<path d="M-2.50482 382.596L-20.3359 394.883L41.8959 485.191L59.727 472.903L-2.50482 382.596Z" fill="#FFC035"/>
<path d="M71.5707 411.304L59.2842 393.472L-31.0264 455.696L-18.7399 473.529L71.5707 411.304Z" fill="#FFC035"/>
</g>
<path d="M-2.50481 382.596L-20.3359 394.883L41.8959 485.191L59.727 472.903L-2.50481 382.596Z" fill="#FFC035"/>
<path d="M71.5707 411.304L59.2842 393.472L-31.0264 455.696L-18.7399 473.529L71.5707 411.304Z" fill="#FFC035"/>
</g>
<defs>
<filter id="filter0_f" x="1770.77" y="0" width="213.817" height="213.817" filterUnits="userSpaceOnUse" color-interpolation-filters="sRGB">
<feFlood flood-opacity="0" result="BackgroundImageFix"/>
<feBlend mode="normal" in="SourceGraphic" in2="BackgroundImageFix" result="shape"/>
<feGaussianBlur stdDeviation="25.5" result="effect1_foregroundBlur"/>
</filter>
<filter id="filter1_f" x="1571.57" y="580.004" width="171.17" height="171.171" filterUnits="userSpaceOnUse" color-interpolation-filters="sRGB">
<feFlood flood-opacity="0" result="BackgroundImageFix"/>
<feBlend mode="normal" in="SourceGraphic" in2="BackgroundImageFix" result="shape"/>
<feGaussianBlur stdDeviation="20" result="effect1_foregroundBlur"/>
</filter>
<filter id="filter2_f" x="-71.0264" y="342.596" width="182.597" height="182.595" filterUnits="userSpaceOnUse" color-interpolation-filters="sRGB">
<feFlood flood-opacity="0" result="BackgroundImageFix"/>
<feBlend mode="normal" in="SourceGraphic" in2="BackgroundImageFix" result="shape"/>
<feGaussianBlur stdDeviation="20" result="effect1_foregroundBlur"/>
</filter>
<clipPath id="clip0">
<rect width="1920" height="763" fill="white"/>
</clipPath>
</defs>
</svg>
